<svg xmlns="http://www.w3.org/2000/svg" viewBox="0 0 64 64" role="img" aria-label="phunnysunny mark">
  <rect width="64" height="64" rx="18" fill="#12110f"/>
  <circle cx="32" cy="32" r="17" fill="#f9ce4a"/>
  <path d="M32 5v8M32 51v8M5 32h8M51 32h8M12.9 12.9l5.7 5.7M45.4 45.4l5.7 5.7M51.1 12.9l-5.7 5.7M18.6 45.4l-5.7 5.7" stroke="#f9ce4a" stroke-width="5" stroke-linecap="round"/>
  <circle cx="25" cy="29" r="2.8" fill="#12110f"/>
  <circle cx="39" cy="29" r="2.8" fill="#12110f"/>
  <path d="M23 38c4.8 5 13.2 5 18 0" fill="none" stroke="#12110f" stroke-width="4" stroke-linecap="round"/>
  <path d="M19 20c4-5 10-7 16-6 8 1.3 13 7.8 12 16-3-6-9-10-17-10-4.3 0-7.9.9-11 0z" fill="#fff7dd" opacity=".85"/>
</svg>
