<svg xmlns="http://www.w3.org/2000/svg" viewBox="0 0 112 78">
  <defs>
    <linearGradient id="shell" x1="14" x2="93" y1="13" y2="70" gradientUnits="userSpaceOnUse">
      <stop stop-color="#6b5cff"/>
      <stop offset=".55" stop-color="#2f66d5"/>
      <stop offset="1" stop-color="#16245f"/>
    </linearGradient>
    <linearGradient id="core" x1="46" x2="78" y1="20" y2="52" gradientUnits="userSpaceOnUse">
      <stop stop-color="#fff36b"/>
      <stop offset="1" stop-color="#ff7c2d"/>
    </linearGradient>
  </defs>
  <path fill="#18203f" d="M18 50c-10-13-4-31 15-38 23-9 57 0 67 19 8 16-5 34-31 38-21 3-40-4-51-19Z"/>
  <path fill="url(#shell)" d="M18 43c0-23 22-37 45-34 23 3 39 18 38 38-14 18-66 22-83-4Z"/>
  <path fill="#94f4ff" d="M20 37c8-13 23-21 43-18 16 2 28 10 34 22-22-7-50-9-77-4Z" opacity=".65"/>
  <circle cx="78" cy="39" r="15" fill="url(#core)"/>
  <circle cx="78" cy="39" r="7" fill="#17203f"/>
  <path fill="none" stroke="#18203f" stroke-linecap="round" stroke-width="5" d="M30 55 16 72m25-13-6 16m50-19 12 17m-49-59-8-11m31 11 9-11"/>
  <path fill="#ff4068" d="M22 31h18v8H22z"/>
  <path fill="#fff4a3" d="M45 30h10v10H45z"/>
</svg>
